{
  "accessors": [
    {
      "bufferView": 2,
      "componentType": 5126,
      "count": 444,
      "max": [
        0.5977450013160706,
        3.0909979343414307,
        0.5537649989128113
      ],
      "min": [
        -0.6570680141448975,
        0.6913939714431763,
        -0.4986119866371155
      ],
      "type": "VEC3"
    },
    {
      "bufferView": 2,
      "byteOffset": 5328,
      "componentType": 5126,
      "count": 444,
      "max": [
        0.9999569058418274,
        0.9828970432281494,
        0.9963809847831726
      ],
      "min": [
        -0.9988816976547241,
        -0.9980482459068298,
        -0.9999452233314514
      ],
      "type": "VEC3"
    },
    {
      "bufferView": 1,
      "componentType": 5126,
      "count": 444,
      "max": [
        0.9905999898910522,
        0.991599977016449
      ],
      "min": [
        0.006099999882280827,
        0.002400040626525879
      ],
      "type": "VEC2"
    },
    {
      "bufferView": 0,
      "componentType": 5125,
      "count": 1914,
      "type": "SCALAR"
    },
    {
      "bufferView": 2,
      "byteOffset": 10656,
      "componentType": 5126,
      "count": 667,
      "max": [
        0.296517014503479,
        2.0601329803466797,
        0.21573099493980408
      ],
      "min": [
        -0.40751299262046814,
        1.5387359857559204,
        -0.23553800582885742
      ],
      "type": "VEC3"
    },
    {
      "bufferView": 2,
      "byteOffset": 18660,
      "componentType": 5126,
      "count": 667,
      "max": [
        0.9982643127441406,
        0.9999771118164063,
        0.9982932806015015
      ],
      "min": [
        -0.9795274138450623,
        -0.9708905220031738,
        -0.9984506368637085
      ],
      "type": "VEC3"
    },
    {
      "bufferView": 1,
      "byteOffset": 3552,
      "componentType": 5126,
      "count": 667,
      "max": [
        0.4984000027179718,
        0.978600025177002
      ],
      "min": [
        0.0026000000070780516,
        0.0005000829696655273
      ],
      "type": "VEC2"
    },
    {
      "bufferView": 0,
      "byteOffset": 7656,
      "componentType": 5125,
      "count": 1692,
      "type": "SCALAR"
    },
    {
      "bufferView": 2,
      "byteOffset": 26664,
      "componentType": 5126,
      "count": 1506,
      "max": [
        0.7969340085983276,
        1.6086210012435913,
        0.17548500001430511
      ],
      "min": [
        -0.8007400035858154,
        -0.0007210000185295939,
        -0.1965479999780655
      ],
      "type": "VEC3"
    },
    {
      "bufferView": 2,
      "byteOffset": 44736,
      "componentType": 5126,
      "count": 1506,
      "max": [
        0.9989001750946045,
        0.999984860420227,
        0.9999769926071167
      ],
      "min": [
        -0.9988993406295776,
        -0.9997195601463318,
        -0.9999983310699463
      ],
      "type": "VEC3"
    },
    {
      "bufferView": 1,
      "byteOffset": 8888,
      "componentType": 5126,
      "count": 1506,
      "max": [
        0.9965999722480774,
        0.9986000061035156
      ],
      "min": [
        0.5019999742507935,
        0.0020999908447265625
      ],
      "type": "VEC2"
    },
    {
      "bufferView": 0,
      "byteOffset": 14424,
      "componentType": 5125,
      "count": 5520,
      "type": "SCALAR"
    }
  ],
  "asset": {
    "extras": {
      "author": "lechitachan (https://sketchfab.com/lechitachan)",
      "license": "CC-BY-4.0 (http://creativecommons.org/licenses/by/4.0/)",
      "source": "https://sketchfab.com/3d-models/goku-76acf6680f024dc4ac08811914fc9520",
      "title": "Goku"
    },
    "generator": "Sketchfab-12.66.0",
    "version": "2.0"
  },
  "bufferViews": [
    {
      "buffer": 0,
      "byteLength": 36504,
      "name": "floatBufferViews",
      "target": 34963
    },
    {
      "buffer": 0,
      "byteLength": 20936,
      "byteOffset": 36504,
      "byteStride": 8,
      "name": "floatBufferViews",
      "target": 34962
    },
    {
      "buffer": 0,
      "byteLength": 62808,
      "byteOffset": 57440,
      "byteStride": 12,
      "name": "floatBufferViews",
      "target": 34962
    }
  ],
  "buffers": [
    {
      "byteLength": 120248,
      "uri": "scene.bin"
    }
  ],
  "images": [
    {
      "uri": "textures/Kintoun_baseColor.png"
    },
    {
      "uri": "textures/Head_baseColor.png"
    },
    {
      "uri": "textures/Body_baseColor.png"
    }
  ],
  "materials": [
    {
      "doubleSided": true,
      "name": "Kintoun",
      "pbrMetallicRoughness": {
        "baseColorTexture": {
          "index": 0
        },
        "metallicFactor": 0.0,
        "roughnessFactor": 0.9468170410305501
      }
    },
    {
      "doubleSided": true,
      "name": "Head",
      "pbrMetallicRoughness": {
        "baseColorTexture": {
          "index": 1
        },
        "metallicFactor": 0.0,
        "roughnessFactor": 0.9468170410305501
      }
    },
    {
      "doubleSided": true,
      "name": "Body",
      "pbrMetallicRoughness": {
        "baseColorTexture": {
          "index": 2
        },
        "metallicFactor": 0.0,
        "roughnessFactor": 0.9468170410305501
      }
    }
  ],
  "meshes": [
    {
      "name": "Kintoun_submesh_1_3_Kintoun_0",
      "primitives": [
        {
          "attributes": {
            "NORMAL": 1,
            "POSITION": 0,
            "TEXCOORD_0": 2
          },
          "indices": 3,
          "material": 0,
          "mode": 4
        }
      ]
    },
    {
      "name": "Head_submesh_2_3_Head_0",
      "primitives": [
        {
          "attributes": {
            "NORMAL": 5,
            "POSITION": 4,
            "TEXCOORD_0": 6
          },
          "indices": 7,
          "material": 1,
          "mode": 4
        }
      ]
    },
    {
      "name": "Body_submesh_3_3_Body_0",
      "primitives": [
        {
          "attributes": {
            "NORMAL": 9,
            "POSITION": 8,
            "TEXCOORD_0": 10
          },
          "indices": 11,
          "material": 2,
          "mode": 4
        }
      ]
    }
  ],
  "nodes": [
    {
      "children": [
        1
      ],
      "matrix": [
        1.0,
        0.0,
        0.0,
        0.0,
        0.0,
        2.220446049250313e-16,
        -1.0,
        0.0,
        0.0,
        1.0,
        2.220446049250313e-16,
        0.0,
        0.0,
        0.0,
        0.0,
        1.0
      ],
      "name": "Sketchfab_model"
    },
    {
      "children": [
        2
      ],
      "matrix": [
        1.0,
        0.0,
        0.0,
        0.0,
        0.0,
        0.0,
        1.0,
        0.0,
        0.0,
        -1.0,
        0.0,
        0.0,
        0.0,
        0.0,
        0.0,
        1.0
      ],
      "name": "Goku.fbx"
    },
    {
      "children": [
        3,
        5,
        7
      ],
      "name": "RootNode"
    },
    {
      "children": [
        4
      ],
      "matrix": [
        0.9999756307053947,
        0.006981260297962711,
        1.3010426069826053e-18,
        0.0,
        0.0,
        1.1102230246251565e-16,
        -1.0,
        0.0,
        -0.006981260297962711,
        0.9999756307053949,
        1.1102230246251565e-16,
        0.0,
        0.003066291334107518,
        -0.4392067492008209,
        1.6955970525741577,
        1.0
      ],
      "name": "Kintoun_submesh_1_3"
    },
    {
      "mesh": 0,
      "name": "Kintoun_submesh_1_3_Kintoun_0"
    },
    {
      "children": [
        6
      ],
      "name": "Head_submesh_2_3"
    },
    {
      "mesh": 1,
      "name": "Head_submesh_2_3_Head_0"
    },
    {
      "children": [
        8
      ],
      "name": "Body_submesh_3_3"
    },
    {
      "mesh": 2,
      "name": "Body_submesh_3_3_Body_0"
    }
  ],
  "samplers": [
    {
      "magFilter": 9729,
      "minFilter": 9987,
      "wrapS": 10497,
      "wrapT": 10497
    }
  ],
  "scene": 0,
  "scenes": [
    {
      "name": "Sketchfab_Scene",
      "nodes": [
        0
      ]
    }
  ],
  "textures": [
    {
      "sampler": 0,
      "source": 0
    },
    {
      "sampler": 0,
      "source": 1
    },
    {
      "sampler": 0,
      "source": 2
    }
  ]
}
